<svg width="10" height="10" xmlns="http://www.w3.org/2000/svg"><path stroke="null" fill="#ff0033" id="svg_1" d="m9.74041,8.289c0.38721,0.38721 0.26831,1.0145 -0.11891,1.40171c-0.19205,0.19361 -0.44607,0.28964 -0.70007,0.28964s-0.50741,-0.09681 -0.7007,-0.29042l-3.26437,-3.26266l-3.26406,3.26189c-0.1936,0.19516 -0.44731,0.29119 -0.70101,0.29119s-0.50709,-0.09603 -0.70085,-0.29119c-0.38722,-0.38721 -0.38722,-1.0145 0,-1.40171l3.26498,-3.26499l-3.26498,-3.26345c-0.38722,-0.38721 -0.38722,-1.0145 0,-1.40172s1.0145,-0.38721 1.40171,0l3.26422,3.26654l3.26499,-3.26498c0.38721,-0.38722 1.0145,-0.38722 1.40171,0s0.38722,1.0145 0,1.40171l-3.26498,3.26499l3.38235,3.26345z"/></svg>
